# xmcd
#
# Track frame offsets: 
#        200
#        13080
#        34780
#        60445
#        78810
#        93810
#        113102
#        137682
#        156170
#        175702
#        186677
#
# Disc length: 2701 seconds
#
# Revision: 3
# Processed by: cddbd v1.5.2PL0 Copyright (c) Steve Scherf et al.
# Submitted via: ExactAudioCopyFreeDBPlugin 1.0
#
DISCID=830a8b0b
DTITLE=Sugar Ray Norcia - Sweet and Swingin'
DYEAR=1900
DGENRE=
TTITLE0=Jack She's On The Ball
TTITLE1=You Better Move On
TTITLE2=Need My Baby
TTITLE3=Tomorrow Night
TTITLE4=Lost Mind
TTITLE5=It's A Low Down Dirty Shame
TTITLE6=Love, Life and Money
TTITLE7=You Better Change Your Way Of Loving
TTITLE8=Money, Marbles and Chalk
TTITLE9=My Sweet Love Ain't Around
TTITLE10=No Good Woman
EXTD=
EXTT0=
EXTT1=
EXTT2=
EXTT3=
EXTT4=
EXTT5=
EXTT6=
EXTT7=
EXTT8=
EXTT9=
EXTT10=
PLAYORDER=
